<?xml version="1.0" encoding="utf-8"?>
<svg xmlns="http://www.w3.org/2000/svg"
	xmlns:xlink="http://www.w3.org/1999/xlink"
	width="1800px" height="989px">
<path opacity="0.42" fill="rgb(193,235,192)" fill-rule="evenodd" d="M 1141.96 276.88C 1141.96 276.88 1632.19 282.6 1632.19 282.6 1632.19 282.6 1919.71 82.59 1919.71 82.59 1919.71 82.59 1920.29 83.41 1920.29 83.41 1920.29 83.41 1633.91 282.62 1633.91 282.62 1633.91 282.62 1881.01 285.5 1881.01 285.5 1881.01 285.5 1880.99 286.5 1880.99 286.5 1880.99 286.5 1632.5 283.6 1632.5 283.6 1632.5 283.6 1521.93 360.52 1521.93 360.52 1521.93 360.52 1704.26 387.35 1704.26 387.35 1704.26 387.35 1926.85 318.52 1926.85 318.52 1926.85 318.52 1927.15 319.48 1927.15 319.48 1927.15 319.48 1706.56 387.69 1706.56 387.69 1706.56 387.69 2174.07 456.51 2174.07 456.51 2174.07 456.51 2173.93 457.49 2173.93 457.49 2173.93 457.49 1704.34 388.38 1704.34 388.38 1704.34 388.38 1303.82 512.23 1303.82 512.23 1303.82 512.23 1257.27 544.62 1257.27 544.62 1257.27 544.62 1963.19 829.54 1963.19 829.54 1963.19 829.54 1962.81 830.46 1962.81 830.46 1962.81 830.46 1256.29 545.3 1256.29 545.3 1256.29 545.3 1001.79 722.33 1001.79 722.33 1001.79 722.33 1891.1 913.51 1891.1 913.51 1891.1 913.51 1890.89 914.49 1890.89 914.49 1890.89 914.49 1000.67 723.11 1000.67 723.11 1000.67 723.11 850.06 827.88 850.06 827.88 850.06 827.88 1943.06 952.5 1943.06 952.5 1943.06 952.5 1942.94 953.5 1942.94 953.5 1942.94 953.5 848.82 828.74 848.82 828.74 848.82 828.74 619.29 988.41 619.29 988.41 619.29 988.41 618.71 987.59 618.71 987.59 618.71 987.59 847.31 828.57 847.31 828.57 847.31 828.57 433.46 781.38 433.46 781.38 433.46 781.38-64.85 935.48-64.85 935.48-64.85 935.48-65.15 934.52-65.15 934.52-65.15 934.52 430.98 781.1 430.98 781.1 430.98 781.1-118.06 718.5-118.06 718.5-118.06 718.5-117.94 717.5-117.94 717.5-117.94 717.5 433.36 780.36 433.36 780.36 433.36 780.36 775.22 674.65 775.22 674.65 775.22 674.65 246.12 560.91 246.12 560.91 246.12 560.91-86.85 666.48-86.85 666.48-86.85 666.48-87.15 665.52-87.15 665.52-87.15 665.52 244.15 560.48 244.15 560.48 244.15 560.48-86.11 489.49-86.11 489.49-86.11 489.49-85.89 488.51-85.89 488.51-85.89 488.51 246.07 559.87 246.07 559.87 246.07 559.87 832.07 374.08 832.07 374.08 832.07 374.08 597.27 279.31 597.27 279.31 597.27 279.31-162.91 423.49-162.91 423.49-162.91 423.49-163.09 422.51-163.09 422.51-163.09 422.51 595.55 278.62 595.55 278.62 595.55 278.62 577.41 271.3 577.41 271.3 577.41 271.3-177.01 262.5-177.01 262.5-177.01 262.5-176.99 261.5-176.99 261.5-176.99 261.5 574.86 270.27 574.86 270.27 574.86 270.27 387.13 194.5 387.13 194.5 387.13 194.5-102.07 122.49-102.07 122.49-102.07 122.49-101.93 121.51-101.93 121.51-101.93 121.51 383.19 192.91 383.19 192.91 383.19 192.91-86.19 3.46-86.19 3.46-86.19 3.46-85.81 2.54-85.81 2.54-85.81 2.54 387.39 193.53 387.39 193.53 387.39 193.53 757.21 247.96 757.21 247.96 757.21 247.96 1933.61 24.84 1933.61 24.84 1933.61 24.84 2000.85 3.52 2000.85 3.52 2000.85 3.52 2001.15 4.48 2001.15 4.48 2001.15 4.48 1941.84 23.28 1941.84 23.28 1941.84 23.28 2061.91 0.51 2061.91 0.51 2061.91 0.51 2062.09 1.49 2062.09 1.49 2062.09 1.49 1933.85 25.81 1933.85 25.81 1933.85 25.81 1141.96 276.88 1141.96 276.88ZM 1630.77 283.58C 1630.77 283.58 1138.92 277.85 1138.92 277.85 1138.92 277.85 1082.28 295.81 1082.28 295.81 1082.28 295.81 1520.48 360.3 1520.48 360.3 1520.48 360.3 1630.77 283.58 1630.77 283.58ZM 1135.73 277.81C 1135.73 277.81 944.88 275.58 944.88 275.58 944.88 275.58 1080.02 295.47 1080.02 295.47 1080.02 295.47 1135.73 277.81 1135.73 277.81ZM 835.02 374.2C 835.02 374.2 1230.56 533.84 1230.56 533.84 1230.56 533.84 1303.38 511.32 1303.38 511.32 1303.38 511.32 1519.28 361.14 1519.28 361.14 1519.28 361.14 1080.1 296.5 1080.1 296.5 1080.1 296.5 835.02 374.2 835.02 374.2ZM 1702.05 388.04C 1702.05 388.04 1520.73 361.35 1520.73 361.35 1520.73 361.35 1306.53 510.35 1306.53 510.35 1306.53 510.35 1702.05 388.04 1702.05 388.04ZM 1300.67 513.21C 1300.67 513.21 1232.03 534.43 1232.03 534.43 1232.03 534.43 1256.16 544.17 1256.16 544.17 1256.16 544.17 1300.67 513.21 1300.67 513.21ZM 1255.18 544.85C 1255.18 544.85 1230.52 534.9 1230.52 534.9 1230.52 534.9 779.17 674.48 779.17 674.48 779.17 674.48 1000.45 722.05 1000.45 722.05 1000.45 722.05 1255.18 544.85 1255.18 544.85ZM 435.84 780.65C 435.84 780.65 848.56 827.71 848.56 827.71 848.56 827.71 999.33 722.83 999.33 722.83 999.33 722.83 777.22 675.08 777.22 675.08 777.22 675.08 435.84 780.65 435.84 780.65ZM 248.04 560.3C 248.04 560.3 777.17 674.05 777.17 674.05 777.17 674.05 1229.05 534.31 1229.05 534.31 1229.05 534.31 833.53 374.67 833.53 374.67 833.53 374.67 248.04 560.3 248.04 560.3ZM 833.57 373.61C 833.57 373.61 1077.84 296.16 1077.84 296.16 1077.84 296.16 937.42 275.5 937.42 275.5 937.42 275.5 635.94 271.98 635.94 271.98 635.94 271.98 599.09 278.97 599.09 278.97 599.09 278.97 833.57 373.61 833.57 373.61ZM 597.37 278.28C 597.37 278.28 630.88 271.92 630.88 271.92 630.88 271.92 580.16 271.33 580.16 271.33 580.16 271.33 597.37 278.28 597.37 278.28ZM 391.33 195.12C 391.33 195.12 577.61 270.3 577.61 270.3 577.61 270.3 635.85 270.98 635.85 270.98 635.85 270.98 754.21 248.53 754.21 248.53 754.21 248.53 391.33 195.12 391.33 195.12ZM 640.9 271.04C 640.9 271.04 930.05 274.41 930.05 274.41 930.05 274.41 757.23 248.97 757.23 248.97 757.23 248.97 640.9 271.04 640.9 271.04ZM 760.24 248.41C 760.24 248.41 937.5 274.5 937.5 274.5 937.5 274.5 1138.77 276.84 1138.77 276.84 1138.77 276.84 1925.62 27.38 1925.62 27.38 1925.62 27.38 760.24 248.41 760.24 248.41Z"/>
</svg>